<svg width="656" height="774" viewBox="0 0 656 774" fill="none" xmlns="http://www.w3.org/2000/svg">
<g id="relax 1">
<g id="undraw relaxation 1 wbr7 1">
<g id="Group">
<path id="Vector" d="M346.31 377.42L327.56 375.67L381.28 0L401.45 2.17L346.31 377.42Z" fill="url(#paint0_linear)"/>
<path id="Vector 2" d="M381.2 54.8873L332.697 375.216L340.963 376.468L389.465 56.1389L381.2 54.8873Z" fill="#263238"/>
<path id="Vector 3" d="M383.36 56.78L390.38 6.99002" stroke="#263238" stroke-width="8" stroke-miterlimit="10"/>
<path id="Vector 4" d="M644.26 161.52C347.96 -91.23 94.61 100.01 94.61 100.01L644.26 161.52Z" fill="url(#paint1_linear)"/>
<path id="Vector 5" d="M626.61 154.44C350.73 -80.73 114.68 97.44 114.68 97.44L626.61 154.44Z" fill="#BCC6EF"/>
<path id="Vector 6" d="M19.03 305.73L34.15 351.83L49.99 400.13L65.11 446.23L80.95 494.53L96.07 540.63L111.92 588.93L127.04 635.03L142.88 683.33L158 729.43L172.4 773.34L429.53 689L415.13 645.09L400.01 598.99L384.17 550.69L369.05 504.59L353.2 456.29L338.08 410.19L322.24 361.9L307.12 315.79L291.28 267.5L276.16 221.4L19.03 305.73Z" fill="url(#paint2_linear)"/>
<path id="Vector 7" d="M273.895 229.457L27.7103 310.208L175.988 762.261L422.173 681.51L273.895 229.457Z" fill="#BCC6EF"/>
<path id="Vector 8" opacity="0.5" d="M273.892 229.464L27.7078 310.215L42.3252 354.779L288.51 274.028L273.892 229.464Z" fill="white"/>
<path id="Vector 9" opacity="0.5" d="M303.825 320.72L57.6401 401.471L72.2575 446.035L318.442 365.284L303.825 320.72Z" fill="white"/>
<path id="Vector 10" opacity="0.5" d="M333.753 411.973L87.5688 492.724L102.186 537.288L348.371 456.537L333.753 411.973Z" fill="white"/>
<path id="Vector 11" opacity="0.5" d="M363.686 503.229L117.501 583.98L132.119 628.544L378.303 547.793L363.686 503.229Z" fill="white"/>
<path id="Vector 12" opacity="0.5" d="M393.618 594.485L147.433 675.236L162.051 719.8L408.236 639.049L393.618 594.485Z" fill="white"/>
<path id="Vector 13" d="M222.45 423.74C222.45 423.74 270.97 360.74 234.67 343.23C198.37 325.72 160.54 335.81 160.54 335.81L164.37 347.48C164.37 347.48 256.85 357.11 198.68 409.09L222.45 423.74Z" fill="#FFE0D6"/>
<path id="Vector 14" d="M145.76 448.89C145.76 448.89 69.34 426.89 88.23 391.26C107.12 355.63 143.61 341.38 143.61 341.38L147.44 353.05C147.44 353.05 78.63 415.58 156.29 423.05L145.76 448.89Z" fill="#FFE0D6"/>
<path id="Vector 15" opacity="0.2" d="M91.42 390.22C107 360.87 134.51 346.01 143.67 341.7L143.57 341.38C143.57 341.38 107.13 355.68 88.24 391.26C69.35 426.84 145.77 448.89 145.77 448.89L146.5 447.09C133.61 442.93 74.61 421.96 91.42 390.22Z" fill="black"/>
<path id="Vector 16" opacity="0.2" d="M231.49 344.28C201.55 329.86 170.58 334.18 160.65 336.13L160.55 335.81C160.55 335.81 198.39 325.75 234.68 343.23C270.97 360.71 222.46 423.74 222.46 423.74L220.8 422.74C228.74 411.67 263.87 359.87 231.49 344.28Z" fill="black"/>
<path id="Vector 17" d="M177.116 414.994C208.766 404.613 226.007 370.541 215.625 338.891C205.244 307.242 171.172 290.001 139.522 300.382C107.873 310.764 90.6322 344.836 101.013 376.485C111.395 408.134 145.467 425.376 177.116 414.994Z" fill="#FF7185"/>
<path id="Vector 18" d="M215.75 532.79C194.15 539.87 177.61 549.22 170.61 527.67L147.61 457.67C144.227 447.257 145.103 435.928 150.046 426.159C154.989 416.39 163.597 408.973 173.99 405.53C184.403 402.147 195.732 403.023 205.501 407.966C215.27 412.909 222.687 421.517 226.13 431.91L249.13 501.91C256.18 523.46 237.34 525.67 215.75 532.79Z" fill="#FF8976"/>
<g id="Group_2" opacity="0.2">
<path id="Vector 19" opacity="0.2" d="M218.93 531.74L217.34 532.27C222.67 530.57 227.79 529.12 232.34 527.57C228.16 528.9 223.61 530.21 218.93 531.74Z" fill="black"/>
<path id="Vector 20" opacity="0.2" d="M173.75 526.58L150.75 456.58C147.452 446.431 148.195 435.402 152.826 425.788C157.457 416.174 165.618 408.717 175.61 404.97C175.07 405.12 174.54 405.28 174 405.45C163.605 408.891 154.995 416.307 150.05 426.076C145.105 435.846 144.228 447.176 147.61 457.59L170.61 527.59C176.16 544.5 187.48 542.43 202.51 537.34C189.03 541.67 178.9 542.28 173.75 526.58Z" fill="black"/>
</g>
<path id="Vector 21" d="M251.01 507.67C251.01 507.67 300.73 550.59 301.01 587.77C301 593.852 301.39 599.929 302.18 605.96L307.63 658.96L285 665.21L276.21 598.79C275.716 595.071 274.296 591.537 272.08 588.51L252.81 562.11C250.738 559.272 247.82 557.163 244.475 556.085C241.13 555.007 237.53 555.016 234.19 556.11C231.925 556.853 229.846 558.075 228.094 559.691C226.343 561.308 224.958 563.282 224.036 565.48C223.113 567.678 222.674 570.048 222.747 572.431C222.82 574.814 223.404 577.153 224.46 579.29L243.94 618.73L261.94 702.16L239.61 709.48C239.61 709.48 220.85 645.11 205.1 615.02C189.35 584.93 173.01 533.28 173.01 533.28L251.01 507.67Z" fill="#5CAADE"/>
<path id="Vector 22" d="M169.654 389.23L167.878 389.813C163.679 391.19 161.392 395.71 162.769 399.908L168.224 416.537C169.601 420.735 174.12 423.022 178.319 421.645L180.095 421.062C184.294 419.685 186.581 415.165 185.204 410.967L179.749 394.339C178.372 390.14 173.853 387.853 169.654 389.23Z" fill="#FFE0D6"/>
<path id="Vector 23" opacity="0.2" d="M162.4 398.82C162.4 398.82 171.19 402.08 179.16 393.38L162.4 398.82Z" fill="black"/>
<path id="Vector 24" d="M171.198 396.95C192.881 389.838 204.694 366.494 197.581 344.81C190.469 323.126 167.125 311.314 145.441 318.427C123.757 325.539 111.945 348.883 119.058 370.567C126.17 392.25 149.514 404.063 171.198 396.95Z" fill="#FFE0D6"/>
<path id="Vector 25" d="M119.61 329.26C119.61 329.26 123.34 362.12 193.08 327.49L167.4 306.49L142.31 308.84L119.61 329.26Z" fill="#FF7185"/>
<path id="Vector 26" d="M176.26 372.97C177.03 375.31 172.77 379.97 166.33 382.1C159.89 384.23 153.69 382.97 152.92 380.62C152.15 378.27 157.1 375.72 163.55 373.62C170 371.52 175.49 370.67 176.26 372.97Z" fill="white"/>
<path id="Vector 27" opacity="0.1" d="M163.349 361.917L156.764 364.077C156.24 364.249 155.954 364.814 156.126 365.339L156.198 365.557C156.37 366.082 156.935 366.368 157.459 366.196L164.044 364.036C164.569 363.864 164.855 363.299 164.683 362.774L164.611 362.556C164.439 362.031 163.874 361.745 163.349 361.917Z" fill="black"/>
<path id="Vector 28" d="M137.491 355.109C138.662 354.725 139.299 353.465 138.915 352.295C138.532 351.124 137.272 350.487 136.101 350.871C134.931 351.255 134.294 352.514 134.678 353.685C135.061 354.855 136.321 355.492 137.491 355.109Z" fill="#383F4D"/>
<path id="Vector 29" d="M173.577 343.273C174.747 342.889 175.385 341.629 175.001 340.459C174.617 339.288 173.357 338.651 172.187 339.035C171.017 339.419 170.379 340.679 170.763 341.849C171.147 343.019 172.407 343.657 173.577 343.273Z" fill="#383F4D"/>
<path id="Vector 30" d="M123.61 352.14L126.68 361.51C127.01 362.508 127.719 363.336 128.655 363.815C129.591 364.294 130.677 364.386 131.68 364.07L147.42 358.91C148.418 358.58 149.246 357.871 149.725 356.935C150.204 355.999 150.296 354.913 149.98 353.91L146.91 344.54C146.58 343.542 145.871 342.714 144.935 342.235C143.999 341.756 142.913 341.664 141.91 341.98L126.17 347.14C125.172 347.47 124.344 348.179 123.865 349.115C123.386 350.051 123.294 351.137 123.61 352.14ZM144.85 358.06L133.35 361.83C132.347 362.146 131.261 362.054 130.325 361.575C129.389 361.096 128.68 360.268 128.35 359.27L126.29 352.98C125.974 351.977 126.066 350.891 126.545 349.955C127.024 349.019 127.852 348.31 128.85 347.98L140.35 344.21C141.353 343.894 142.439 343.986 143.375 344.465C144.311 344.944 145.02 345.772 145.35 346.77L147.41 353.06C147.725 354.065 147.631 355.154 147.148 356.09C146.665 357.026 145.832 357.734 144.83 358.06H144.85Z" fill="#E75F7E"/>
<path id="Vector 31" opacity="0.2" d="M140.507 343.543L128.211 347.576C126.333 348.192 125.309 350.214 125.926 352.093L128.565 360.141C129.182 362.02 131.204 363.043 133.083 362.427L145.378 358.394C147.257 357.778 148.28 355.755 147.664 353.877L145.024 345.829C144.408 343.95 142.386 342.926 140.507 343.543Z" fill="#E75F7E"/>
<path id="Vector 32" d="M147.89 349.81L146.89 349.23C146.95 349.14 153.66 339.69 162.48 344.15L161.98 345.15C154.11 341.15 148.1 349.47 147.89 349.81Z" fill="#E75F7E"/>
<path id="Vector 33" d="M198.26 352.591C200.103 352.43 201.294 348.812 200.92 344.51C200.546 340.207 198.748 336.849 196.905 337.009C195.062 337.17 193.871 340.788 194.245 345.09C194.619 349.393 196.417 352.751 198.26 352.591Z" fill="#FFE0D6"/>
<path id="Vector 34" d="M123.122 377.244C124.702 376.281 124.161 372.511 121.914 368.822C119.667 365.134 116.565 362.924 114.985 363.887C113.405 364.85 113.945 368.62 116.192 372.308C118.439 375.996 121.542 378.206 123.122 377.244Z" fill="#FFE0D6"/>
<path id="Vector 35" opacity="0.2" d="M121.31 327.73L119.61 329.26C119.61 329.26 123.34 362.12 193.08 327.49L190.51 325.39C135.72 351.6 123.8 334.44 121.31 327.73Z" fill="white"/>
<path id="Vector 36" d="M159.67 340.31L162.74 349.68C163.07 350.678 163.779 351.506 164.715 351.985C165.651 352.464 166.737 352.556 167.74 352.24L183.48 347.08C184.478 346.75 185.306 346.041 185.785 345.105C186.264 344.169 186.356 343.083 186.04 342.08L183.01 332.67C182.68 331.672 181.971 330.844 181.035 330.365C180.099 329.886 179.013 329.794 178.01 330.11L162.27 335.27C161.768 335.429 161.302 335.686 160.899 336.026C160.496 336.365 160.164 336.781 159.922 337.25C159.681 337.718 159.534 338.229 159.491 338.755C159.448 339.28 159.508 339.808 159.67 340.31ZM180.91 346.23L169.41 350C168.407 350.316 167.321 350.224 166.385 349.745C165.449 349.266 164.74 348.438 164.41 347.44L162.35 341.15C162.034 340.147 162.126 339.061 162.605 338.125C163.084 337.189 163.912 336.48 164.91 336.15L176.41 332.38C177.413 332.064 178.499 332.156 179.435 332.635C180.371 333.114 181.08 333.942 181.41 334.94L183.47 341.23C183.785 342.234 183.693 343.322 183.211 344.258C182.73 345.194 181.9 345.902 180.9 346.23H180.91Z" fill="#E75F7E"/>
<path id="Vector 37" opacity="0.2" d="M176.593 331.707L164.297 335.74C162.419 336.356 161.395 338.379 162.011 340.257L164.651 348.305C165.267 350.184 167.29 351.208 169.169 350.591L181.464 346.558C183.343 345.942 184.366 343.919 183.75 342.041L181.11 333.993C180.494 332.114 178.471 331.091 176.593 331.707Z" fill="#E75F7E"/>
<g id="Group 2" opacity="0.2">
<path id="Vector 38" opacity="0.2" d="M209.36 613.67C193.61 583.58 177.27 531.93 177.27 531.93L173.03 533.32C173.03 533.32 189.37 584.96 205.12 615.06C220.87 645.16 239.61 709.48 239.61 709.48L243.85 708.09C243.85 708.09 225.1 643.72 209.36 613.67Z" fill="black"/>
</g>
<path id="Vector 39" d="M239.61 709.48L246.61 730.67L279.82 728C279.82 728 284.45 720.61 276.34 717.39C268.23 714.17 261.93 702.13 261.93 702.13L239.61 709.48Z" fill="#FFFAFA"/>
<path id="Vector 40" d="M284.36 659.55L282.23 679.14L313.7 690.08C313.7 690.08 320.91 685.18 314.79 678.97C308.67 672.76 307.79 659.2 307.79 659.2L284.36 659.55Z" fill="#FFFAFA"/>
<path id="Vector 41" opacity="0.2" d="M241.74 708.79L239.62 709.49L246.61 730.67L279.82 728C279.82 728 279.95 727.8 280.12 727.45L248.73 729.97L241.74 708.79Z" fill="black"/>
<path id="shadow" opacity="0.1" d="M604.21 446.253C606.918 394.912 493.311 347.182 350.461 339.646C207.612 332.109 89.613 367.62 86.9044 418.961C84.1958 470.302 197.803 518.031 340.653 525.567C483.503 533.104 601.501 497.593 604.21 446.253Z" fill="black"/>
</g>
</g>
</g>
<defs>
<linearGradient id="paint0_linear" x1="437.066" y1="330.384" x2="288.762" y2="52.7088" gradientUnits="userSpaceOnUse">
<stop stop-color="#808080" stop-opacity="0.25"/>
<stop offset="0.54" stop-color="#808080" stop-opacity="0.12"/>
<stop offset="1" stop-color="#808080" stop-opacity="0.1"/>
</linearGradient>
<linearGradient id="paint1_linear" x1="344501" y1="-127966" x2="324992" y2="-164494" gradientUnits="userSpaceOnUse">
<stop stop-color="#808080" stop-opacity="0.25"/>
<stop offset="0.54" stop-color="#808080" stop-opacity="0.12"/>
<stop offset="1" stop-color="#808080" stop-opacity="0.1"/>
</linearGradient>
<linearGradient id="paint2_linear" x1="334743" y1="372103" x2="250089" y2="114017" gradientUnits="userSpaceOnUse">
<stop stop-color="#808080" stop-opacity="0.25"/>
<stop offset="0.54" stop-color="#808080" stop-opacity="0.12"/>
<stop offset="1" stop-color="#808080" stop-opacity="0.1"/>
</linearGradient>
</defs>
</svg>
